<?xml version="1.0" encoding="UTF-8"?>
<svg width="60px" height="72px" viewBox="0 0 60 72" version="1.1" xmlns="http://www.w3.org/2000/svg" xmlns:xlink="http://www.w3.org/1999/xlink">
    <title>贡献指南-黑</title>
    <g id="贡献指南-黑" stroke="none" stroke-width="1" fill="none" fill-rule="evenodd">
        <g id="Group" transform="translate(6, 0)">
            <polygon id="Path" points="0 0 48 0 48 48 0 48"></polygon>
            <path d="M8,36 C8,38.209139 9.790861,40 12,40 C14.209139,40 16,38.209139 16,36 C16,33.790861 14.209139,32 12,32 C9.790861,32 8,33.790861 8,36" id="Path" stroke="#222222" stroke-width="3" stroke-linecap="round" stroke-linejoin="round"></path>
            <path d="M8,12 C8,14.209139 9.790861,16 12,16 C14.209139,16 16,14.209139 16,12 C16,9.790861 14.209139,8 12,8 C9.790861,8 8,9.790861 8,12" id="Path" stroke="#222222" stroke-width="3" stroke-linecap="round" stroke-linejoin="round"></path>
            <path d="M32,36 C32,38.209139 33.790861,40 36,40 C38.209139,40 40,38.209139 40,36 C40,33.790861 38.209139,32 36,32 C33.790861,32 32,33.790861 32,36" id="Path" stroke="#222222" stroke-width="3" stroke-linecap="round" stroke-linejoin="round"></path>
            <line x1="12" y1="16" x2="12" y2="32" id="Path" stroke="#222222" stroke-width="3" stroke-linecap="round" stroke-linejoin="round"></line>
            <path d="M22,12 L32,12 C34.209139,12 36,13.790861 36,16 L36,32" id="Path" stroke="#222222" stroke-width="3" stroke-linecap="round" stroke-linejoin="round"></path>
            <polyline id="Path" stroke="#222222" stroke-width="3" stroke-linecap="round" stroke-linejoin="round" points="28 18 22 12 28 6"></polyline>
        </g>
        <g id="贡献指南" transform="translate(0.915, 54.58)" fill="#222222" fill-rule="nonzero">
            <path d="M1.095,0.63 L1.095,1.905 L5.865,1.905 L5.865,3.555 L0.06,3.555 L0.06,4.83 L13.11,4.83 L13.11,3.555 L7.305,3.555 L7.305,1.905 L12.075,1.905 L12.075,0.63 L1.095,0.63 Z M11.49,5.835 L1.8,5.835 L1.8,10.995 L3.21,10.995 L3.21,7.125 L10.08,7.125 L10.08,10.875 L11.49,10.875 L11.49,5.835 Z M7.785,10.62 L7.065,11.685 C8.895,12.255 10.68,13.035 12.42,14.025 L13.17,12.84 C11.55,11.97 9.75,11.235 7.785,10.62 Z M6.03,7.725 C5.91,9.435 5.505,10.65 4.815,11.34 C4.035,12.075 2.43,12.51 0,12.645 L0.57,13.92 C3.435,13.665 5.25,13.08 6,12.18 C6.72,11.46 7.185,10.02 7.41,7.845 L6.03,7.725 Z" id="Shape"></path>
            <path d="M18.225,0.06 C18.18,0.585 18.12,1.11 18.045,1.65 L14.7,1.65 L14.7,2.925 L17.85,2.925 C17.775,3.345 17.7,3.75 17.61,4.155 L15.135,4.155 L15.135,13.77 L16.35,13.77 L16.35,5.31 L20.745,5.31 L20.745,12.12 C20.745,12.435 20.61,12.6 20.355,12.6 L19.53,12.54 L19.845,13.755 L20.745,13.755 C21.54,13.755 21.945,13.29 21.945,12.39 L21.945,4.155 L18.945,4.155 C19.035,3.765 19.125,3.345 19.2,2.925 L22.395,2.925 L22.395,1.65 L19.41,1.65 C19.47,1.2 19.515,0.735 19.575,0.255 L18.225,0.06 Z M16.785,7.47 L16.785,8.55 L17.955,8.55 L17.955,9.645 L16.695,9.645 L16.695,10.725 L17.955,10.725 L17.955,13.41 L19.155,13.41 L19.155,10.725 L20.415,10.725 L20.415,9.645 L19.155,9.645 L19.155,8.55 L20.34,8.55 L20.34,7.47 L19.815,7.47 C20.01,7.035 20.205,6.555 20.385,6.03 L19.35,5.64 C19.17,6.285 18.975,6.9 18.765,7.47 L18.39,7.47 C18.21,6.795 18,6.21 17.79,5.715 L16.785,6.09 C17.025,6.51 17.22,6.975 17.4,7.47 L16.785,7.47 Z M22.41,4.035 L22.41,5.385 L24.3,5.385 C24.09,8.265 23.28,10.815 21.885,13.035 L22.755,14.025 C23.88,12.405 24.705,10.38 25.215,7.965 C25.665,10.35 26.46,12.375 27.6,14.04 L28.545,13.005 C27.195,11.205 26.295,8.655 25.83,5.385 L28.11,5.385 L28.11,4.035 L25.68,4.035 C25.695,2.535 25.71,1.245 25.71,0.18 L24.405,0.18 C24.405,1.08 24.39,2.355 24.36,4.035 L22.41,4.035 Z M26.97,0.81 L25.995,1.425 C26.535,2.25 26.97,3 27.3,3.675 L28.29,2.985 C27.99,2.355 27.54,1.635 26.97,0.81 Z" id="Shape"></path>
            <path d="M36.9,3.27 C38.73,2.91 40.665,2.355 42.705,1.62 L41.925,0.495 C40.32,1.155 38.64,1.665 36.9,2.025 L36.9,0.18 L35.52,0.18 L35.52,4.275 C35.52,5.295 36,5.805 36.96,5.805 L41.295,5.805 C41.895,5.805 42.345,5.685 42.645,5.445 C42.96,5.205 43.185,4.44 43.305,3.165 L41.985,2.745 C41.925,3.6 41.82,4.11 41.67,4.275 C41.52,4.41 41.31,4.485 41.04,4.485 L37.395,4.485 C37.065,4.485 36.9,4.305 36.9,3.975 L36.9,3.27 Z M31.785,13.83 C32.73,13.83 33.21,13.335 33.21,12.345 L33.21,8.295 C33.78,8.085 34.335,7.845 34.89,7.605 L34.89,6.15 C34.35,6.42 33.78,6.66 33.21,6.885 L33.21,4.245 L34.755,4.245 L34.755,2.88 L33.21,2.88 L33.21,0.18 L31.845,0.18 L31.845,2.88 L29.94,2.88 L29.94,4.245 L31.845,4.245 L31.845,7.365 C31.125,7.59 30.405,7.785 29.67,7.935 L30.015,9.36 C30.63,9.18 31.245,9 31.845,8.79 L31.845,11.985 C31.845,12.36 31.65,12.555 31.29,12.555 C30.855,12.555 30.39,12.525 29.91,12.465 L30.225,13.83 L31.785,13.83 Z M42.75,6.75 L35.64,6.75 L35.64,13.965 L37.05,13.965 L37.05,13.305 L41.325,13.305 L41.325,13.965 L42.75,13.965 L42.75,6.75 Z M37.05,12.045 L37.05,10.635 L41.325,10.635 L41.325,12.045 L37.05,12.045 Z M37.05,9.375 L37.05,7.995 L41.325,7.995 L41.325,9.375 L37.05,9.375 Z" id="Shape"></path>
            <path d="M44.865,1.38 L44.865,2.715 L50.775,2.715 C50.7,3.135 50.61,3.555 50.52,3.975 L45.63,3.975 L45.63,13.95 L47.025,13.95 L47.025,5.31 L56.175,5.31 L56.175,11.91 C56.175,12.3 55.98,12.51 55.605,12.51 L54.27,12.48 L54.645,13.86 L56.07,13.86 C57.06,13.86 57.57,13.305 57.57,12.225 L57.57,3.975 L51.975,3.975 C52.065,3.57 52.155,3.15 52.245,2.715 L58.305,2.715 L58.305,1.38 L52.47,1.38 C52.53,1.005 52.575,0.615 52.62,0.195 L51.165,0 C51.12,0.465 51.06,0.93 51,1.38 L44.865,1.38 Z M50.085,5.58 L48.81,6.045 C49.095,6.45 49.335,6.885 49.545,7.35 L48.105,7.35 L48.105,8.595 L50.895,8.595 L50.895,9.855 L47.67,9.855 L47.67,11.1 L50.895,11.1 L50.895,13.725 L52.275,13.725 L52.275,11.1 L55.515,11.1 L55.515,9.855 L52.275,9.855 L52.275,8.595 L55.11,8.595 L55.11,7.35 L53.64,7.35 C53.91,6.93 54.15,6.48 54.375,6 L53.085,5.52 C52.845,6.15 52.575,6.765 52.275,7.35 L50.91,7.35 C50.655,6.675 50.385,6.09 50.085,5.58 Z" id="Shape"></path>
        </g>
    </g>
</svg>