<?xml version="1.0" encoding="UTF-8"?>
<svg width="60px" height="72px" viewBox="0 0 60 72" version="1.1" xmlns="http://www.w3.org/2000/svg" xmlns:xlink="http://www.w3.org/1999/xlink">
    <title>工具辅助-白</title>
    <g id="工具辅助-白" stroke="none" stroke-width="1" fill="none" fill-rule="evenodd">
        <g id="工具辅助" transform="translate(0.795, 54.685)" fill="#FFFFFF" fill-rule="nonzero">
            <polygon id="Path" points="6 2.43 6 11.55 0 11.55 0 12.93 13.425 12.93 13.425 11.55 7.44 11.55 7.44 2.43 12.48 2.43 12.48 1.065 0.975 1.065 0.975 2.43"></polygon>
            <path d="M26.37,0.51 L17.04,0.51 L17.04,9.66 L15,9.66 L15,10.995 L18.87,10.995 C17.85,11.64 16.62,12.225 15.18,12.75 L16.05,13.89 C17.73,13.245 19.155,12.495 20.295,11.64 L19.56,10.995 L23.535,10.995 L23.04,11.745 C24.54,12.255 26.01,12.96 27.45,13.86 L28.245,12.63 C27.15,12.015 25.965,11.475 24.675,10.995 L28.41,10.995 L28.41,9.66 L26.37,9.66 L26.37,0.51 Z M18.465,9.66 L18.465,8.55 L24.945,8.55 L24.945,9.66 L18.465,9.66 Z M18.465,7.41 L18.465,6.3 L24.945,6.3 L24.945,7.41 L18.465,7.41 Z M18.465,5.16 L18.465,4.02 L24.945,4.02 L24.945,5.16 L18.465,5.16 Z M18.465,2.91 L18.465,1.845 L24.945,1.845 L24.945,2.91 L18.465,2.91 Z" id="Shape"></path>
            <path d="M32.595,4.125 L32.595,6.285 L31.395,6.285 C31.755,5.37 32.085,4.32 32.4,3.15 L35.295,3.15 L35.295,1.785 L32.73,1.785 C32.85,1.275 32.955,0.765 33.06,0.225 L31.71,0.015 C31.59,0.63 31.485,1.215 31.365,1.785 L29.85,1.785 L29.85,3.15 L31.035,3.15 C30.705,4.44 30.345,5.49 29.955,6.33 L30.255,7.575 L32.595,7.575 L32.595,9.555 C31.725,9.705 30.795,9.825 29.805,9.945 L30,11.325 C30.885,11.205 31.755,11.07 32.595,10.92 L32.595,13.875 L33.975,13.875 L33.975,10.65 L35.46,10.29 L35.46,8.97 C34.98,9.09 34.485,9.195 33.975,9.3 L33.975,7.575 L35.355,7.575 L35.355,6.285 L33.975,6.285 L33.975,4.125 L32.595,4.125 Z M35.715,1.8 L35.715,3.15 L38.79,3.15 L38.79,4.23 L35.91,4.23 L35.91,13.845 L37.23,13.845 L37.23,10.65 L38.79,10.65 L38.79,13.755 L40.14,13.755 L40.14,10.65 L41.82,10.65 L41.82,12.06 C41.82,12.36 41.67,12.51 41.37,12.51 L40.5,12.45 L40.845,13.785 L41.805,13.785 C42.675,13.785 43.125,13.305 43.125,12.345 L43.125,4.23 L40.14,4.23 L40.14,3.15 L43.59,3.15 L43.59,1.8 L42.375,1.8 L42.84,1.47 C42.54,1.05 42.135,0.555 41.595,0 L40.665,0.57 C41.055,1.005 41.4,1.41 41.7,1.8 L40.14,1.8 L40.14,0.075 L38.79,0.075 L38.79,1.8 L35.715,1.8 Z M38.79,5.49 L38.79,6.885 L37.23,6.885 L37.23,5.49 L38.79,5.49 Z M37.23,8.085 L38.79,8.085 L38.79,9.45 L37.23,9.45 L37.23,8.085 Z M41.82,9.45 L40.14,9.45 L40.14,8.085 L41.82,8.085 L41.82,9.45 Z M41.82,6.885 L40.14,6.885 L40.14,5.49 L41.82,5.49 L41.82,6.885 Z" id="Shape"></path>
            <path d="M51,0.84 L45.78,0.84 L45.78,11.145 C45.435,11.205 45.09,11.28 44.73,11.355 L45.12,12.72 C47.7,12.165 49.965,11.565 51.945,10.92 L51.945,9.57 C51.645,9.66 51.33,9.765 51,9.87 L51,0.84 Z M47.175,10.845 L47.175,8.46 L49.62,8.46 L49.62,10.26 C48.84,10.455 48.015,10.65 47.175,10.845 Z M47.175,7.185 L47.175,5.235 L49.62,5.235 L49.62,7.185 L47.175,7.185 Z M47.175,3.945 L47.175,2.145 L49.62,2.145 L49.62,3.945 L47.175,3.945 Z M53.46,0.09 L53.46,2.97 L51.75,2.97 L51.75,4.35 L53.46,4.35 L53.46,4.5 C53.43,8.415 52.5,11.25 50.67,13.005 L51.735,13.95 C53.775,11.955 54.825,8.805 54.87,4.5 L54.87,4.35 L56.745,4.35 C56.715,8.34 56.67,10.68 56.58,11.385 C56.46,12.105 56.07,12.48 55.38,12.48 C54.99,12.48 54.54,12.45 54.015,12.405 L54.36,13.665 C54.945,13.695 55.365,13.725 55.605,13.725 C56.985,13.725 57.75,13.14 57.915,12 C58.065,10.86 58.14,7.845 58.14,2.97 L54.87,2.97 L54.87,0.09 L53.46,0.09 Z" id="Shape"></path>
        </g>
        <g id="Group" transform="translate(6, 0)">
            <polygon id="Path" points="0 0 48 0 48 48 0 48"></polygon>
            <path d="M6,42 L14,42 L40,16 C42.209139,13.790861 42.209139,10.209139 40,8 C37.790861,5.790861 34.209139,5.790861 32,8 L6,34 L6,42" id="Path" stroke="#FFFFFF" stroke-width="3" stroke-linecap="round" stroke-linejoin="round"></path>
            <line x1="29" y1="11" x2="37" y2="19" id="Path" stroke="#FFFFFF" stroke-width="3" stroke-linecap="round" stroke-linejoin="round"></line>
            <polyline id="Path" stroke="#FFFFFF" stroke-width="3" stroke-linecap="round" stroke-linejoin="round" points="24 16 14 6 6 14 16 24"></polyline>
            <line x1="14" y1="16" x2="11" y2="19" id="Path" stroke="#FFFFFF" stroke-width="3" stroke-linecap="round" stroke-linejoin="round"></line>
            <polyline id="Path" stroke="#FFFFFF" stroke-width="3" stroke-linecap="round" stroke-linejoin="round" points="32 24 42 34 34 42 24 32"></polyline>
            <line x1="32" y1="34" x2="29" y2="37" id="Path" stroke="#FFFFFF" stroke-width="3" stroke-linecap="round" stroke-linejoin="round"></line>
        </g>
    </g>
</svg>