<?xml version="1.0" encoding="UTF-8"?>
<svg width="60px" height="72px" viewBox="0 0 60 72" version="1.1" xmlns="http://www.w3.org/2000/svg" xmlns:xlink="http://www.w3.org/1999/xlink">
    <title>最新项目-白</title>
    <g id="最新项目-白" stroke="none" stroke-width="1" fill="none" fill-rule="evenodd">
        <g id="最新项目" transform="translate(0.87, 54.535)" fill="#FFFFFF" fill-rule="nonzero">
            <path d="M0,5.925 L0,7.065 L1.305,7.065 L1.305,12.015 L0.015,12.075 L0.195,13.275 C2.22,13.14 3.915,12.99 5.28,12.825 L5.28,14.055 L6.645,14.055 L6.645,12.645 C6.93,12.585 7.2,12.54 7.44,12.495 L7.44,11.4 L6.645,11.535 L6.645,7.065 L13.29,7.065 L13.29,5.925 L0,5.925 Z M2.61,11.94 L2.61,10.905 L5.28,10.905 L5.28,11.715 C4.47,11.805 3.585,11.88 2.61,11.94 Z M2.61,9.885 L2.61,8.97 L5.28,8.97 L5.28,9.885 L2.61,9.885 Z M2.61,7.95 L2.61,7.065 L5.28,7.065 L5.28,7.95 L2.61,7.95 Z M1.77,0.63 L1.77,5.175 L11.58,5.175 L11.58,0.63 L1.77,0.63 Z M10.215,4.185 L3.135,4.185 L3.135,3.39 L10.215,3.39 L10.215,4.185 Z M3.135,2.415 L3.135,1.665 L10.215,1.665 L10.215,2.415 L3.135,2.415 Z M7.74,8.985 C8.01,9.975 8.52,10.89 9.285,11.73 C8.685,12.21 7.965,12.615 7.11,12.975 L7.845,14.07 C8.76,13.68 9.555,13.2 10.245,12.63 C10.905,13.155 11.685,13.635 12.615,14.07 L13.35,12.885 C12.495,12.54 11.76,12.15 11.145,11.715 C11.79,10.92 12.24,9.99 12.495,8.91 L12.495,7.83 L7.275,7.83 L7.275,8.985 L7.74,8.985 Z M10.155,10.89 C9.6,10.32 9.21,9.675 8.97,8.985 L11.22,8.985 C10.995,9.675 10.635,10.305 10.155,10.89 Z" id="Shape"></path>
            <path d="M27.525,0.285 C26.055,0.855 24.405,1.17 22.56,1.2 L22.56,7.68 C22.5,9.915 22.035,11.655 21.18,12.915 L22.185,13.995 C23.28,12.42 23.865,10.32 23.94,7.68 L23.94,6.165 L25.74,6.165 L25.74,14.025 L27.135,14.025 L27.135,6.165 L28.575,6.165 L28.575,4.8 L23.94,4.8 L23.94,2.37 C25.5,2.265 26.925,1.995 28.215,1.545 L27.525,0.285 Z M15,1.35 L15,2.67 L21.855,2.67 L21.855,1.35 L19.08,1.35 C18.9,0.855 18.705,0.405 18.525,0 L17.055,0.24 C17.28,0.585 17.49,0.96 17.67,1.35 L15,1.35 Z M14.85,4.755 L14.85,6.06 L17.76,6.06 L17.76,7.41 L15.09,7.41 L15.09,8.7 L17.76,8.7 L17.76,12.39 C17.76,12.69 17.58,12.84 17.22,12.84 C17.025,12.84 16.815,12.81 16.59,12.75 L16.905,14.07 L17.685,14.07 C18.675,14.07 19.17,13.62 19.17,12.72 L19.17,8.7 L21.69,8.7 L21.69,7.41 L19.17,7.41 L19.17,6.06 L21.945,6.06 L21.945,4.755 L20.415,4.755 C20.64,4.305 20.85,3.81 21.03,3.255 L19.755,2.805 C19.575,3.48 19.365,4.125 19.125,4.755 L17.7,4.755 C17.49,4.005 17.25,3.36 17.01,2.82 L15.765,3.285 C16.02,3.735 16.245,4.23 16.44,4.755 L14.85,4.755 Z M15.99,9.36 C15.72,10.59 15.255,11.76 14.595,12.84 L15.765,13.59 C16.425,12.465 16.92,11.145 17.28,9.63 L15.99,9.36 Z M20.685,9.255 L19.515,9.57 C19.875,10.47 20.175,11.385 20.415,12.315 L21.615,11.865 C21.39,11.085 21.075,10.215 20.685,9.255 Z" id="Shape"></path>
            <path d="M31.575,2.895 L31.575,9.66 C30.975,9.825 30.36,9.99 29.73,10.14 L30.15,11.55 C31.86,11.085 33.375,10.575 34.695,10.035 L34.695,8.61 C34.155,8.82 33.6,9.03 33.015,9.225 L33.015,2.895 L34.635,2.895 L34.635,1.515 L29.91,1.515 L29.91,2.895 L31.575,2.895 Z M35.115,0.69 L35.115,2.07 L38.625,2.07 C38.565,2.505 38.475,2.925 38.355,3.345 L35.685,3.345 L35.685,10.605 L37.05,10.605 L37.05,4.665 L41.535,4.665 L41.535,10.605 L42.915,10.605 L42.915,3.345 L39.765,3.345 C39.855,2.94 39.945,2.52 40.02,2.07 L43.515,2.07 L43.515,0.69 L35.115,0.69 Z M40.68,10.515 L39.735,11.43 C40.995,12.39 41.97,13.275 42.66,14.1 L43.68,13.08 C42.87,12.24 41.88,11.385 40.68,10.515 Z M38.535,5.415 L38.535,8.04 C38.475,9.27 38.13,10.275 37.53,11.055 C36.9,11.775 35.7,12.375 33.96,12.855 L34.74,14.07 C36.54,13.56 37.83,12.87 38.625,11.97 C39.435,10.98 39.885,9.66 39.96,8.04 L39.96,5.415 L38.535,5.415 Z" id="Shape"></path>
            <path d="M56.865,0.78 L46.41,0.78 L46.41,14.025 L47.865,14.025 L47.865,13.11 L55.425,13.11 L55.425,13.995 L56.865,13.995 L56.865,0.78 Z M47.865,11.73 L47.865,9.24 L55.425,9.24 L55.425,11.73 L47.865,11.73 Z M47.865,7.95 L47.865,5.64 L55.425,5.64 L55.425,7.95 L47.865,7.95 Z M47.865,4.32 L47.865,2.16 L55.425,2.16 L55.425,4.32 L47.865,4.32 Z" id="Shape"></path>
        </g>
        <g id="Group" transform="translate(6, 0)">
            <polygon id="Path" points="0 0 48 0 48 48 0 48"></polygon>
            <path d="M24,21.882 C28.666,15.266 24.334,6.236 22,4 C22,10.79 17.53,14.598 14.666,17.412 C11.806,20.228 10,24.654 10,28.588 C10,35.996 16.268,42 24,42 C31.732,42 38,35.996 38,28.588 C38,25.164 35.536,19.782 33.334,17.412 C29.166,24.118 26.82,24.118 24,21.882" id="Path" stroke="#FFFFFF" stroke-width="3" stroke-linecap="round" stroke-linejoin="round"></path>
        </g>
    </g>
</svg>