<?xml version="1.0" encoding="UTF-8"?>
<svg width="60px" height="72px" viewBox="0 0 60 72" version="1.1" xmlns="http://www.w3.org/2000/svg" xmlns:xlink="http://www.w3.org/1999/xlink">
    <title>白板软件-黑</title>
    <g id="白板软件-黑" stroke="none" stroke-width="1" fill="none" fill-rule="evenodd">
        <g id="白板软件" transform="translate(2.115, 54.52)" fill="#222222" fill-rule="nonzero">
            <path d="M10.785,2.475 L5.205,2.475 C5.49,1.815 5.715,1.095 5.865,0.33 L4.29,0.12 C4.14,0.93 3.9,1.725 3.6,2.475 L0,2.475 L0,14.025 L1.425,14.025 L1.425,12.93 L9.36,12.93 L9.36,13.995 L10.785,13.995 L10.785,2.475 Z M1.425,11.55 L1.425,8.22 L9.36,8.22 L9.36,11.55 L1.425,11.55 Z M1.425,6.87 L1.425,3.825 L9.36,3.825 L9.36,6.87 L1.425,6.87 Z" id="Shape"></path>
            <path d="M13.65,2.985 L13.65,4.365 L15.615,4.365 C15.15,6.105 14.415,7.665 13.395,9.045 L14.01,10.605 C14.67,9.54 15.21,8.37 15.66,7.11 L15.66,13.95 L17.085,13.95 L17.085,6.45 C17.415,6.975 17.79,7.635 18.21,8.415 L19.02,7.2 C18.375,6.405 17.73,5.67 17.085,5.01 L17.085,4.365 L18.75,4.365 L18.75,2.985 L17.085,2.985 L17.085,0.195 L15.66,0.195 L15.66,2.985 L13.65,2.985 Z M26.19,0.225 C24.165,0.87 21.87,1.215 19.29,1.26 L19.29,6.99 C19.215,9.54 18.705,11.52 17.775,12.96 L18.795,14.04 C19.965,12.285 20.595,9.93 20.67,6.99 L20.67,5.79 L21.195,5.79 C21.495,7.62 22.095,9.21 22.995,10.575 C22.2,11.475 21.21,12.27 20.01,12.975 L20.94,14.07 C22.08,13.38 23.07,12.585 23.88,11.715 C24.66,12.585 25.59,13.35 26.7,13.98 L27.435,12.705 C26.4,12.105 25.515,11.4 24.78,10.59 C25.785,9.12 26.355,7.41 26.505,5.475 L26.505,4.41 L20.67,4.41 L20.67,2.46 C22.95,2.37 25.035,2.055 26.91,1.545 L26.19,0.225 Z M23.865,9.42 C23.175,8.355 22.695,7.14 22.455,5.79 L25.2,5.79 C25.005,7.11 24.555,8.325 23.865,9.42 Z" id="Shape"></path>
            <path d="M31.725,4.41 L31.725,6.465 L30.33,6.465 C30.69,5.595 31.02,4.62 31.32,3.525 L35.145,3.525 L35.145,2.145 L31.68,2.145 C31.815,1.575 31.95,0.99 32.07,0.39 L30.705,0.18 C30.57,0.87 30.435,1.515 30.285,2.145 L28.665,2.145 L28.665,3.525 L29.925,3.525 C29.595,4.71 29.235,5.7 28.845,6.48 L29.145,7.74 L31.725,7.74 L31.725,9.675 C30.75,9.825 29.715,9.975 28.635,10.095 L28.815,11.49 C29.82,11.37 30.795,11.22 31.725,11.07 L31.725,14.025 L33.12,14.025 L33.12,10.8 C33.81,10.65 34.47,10.5 35.115,10.335 L35.115,9 C34.485,9.15 33.81,9.3 33.12,9.435 L33.12,7.74 L34.845,7.74 L34.845,6.465 L33.12,6.465 L33.12,4.41 L31.725,4.41 Z M36.42,0 C36.15,2.46 35.565,4.365 34.635,5.745 L35.805,6.57 C36.345,5.85 36.78,4.92 37.14,3.75 L40.56,3.75 C40.29,4.89 39.96,5.88 39.585,6.75 L41.01,7.14 C41.445,5.865 41.805,4.59 42.075,3.3 L42.075,2.385 L37.485,2.385 C37.62,1.725 37.74,1.005 37.83,0.225 L36.42,0 Z M37.65,4.65 C37.635,6.555 37.44,8.115 37.08,9.315 C36.63,10.755 35.7,11.955 34.26,12.945 L35.205,14.1 C36.87,12.96 37.95,11.535 38.43,9.795 C39.135,11.445 40.125,12.87 41.415,14.04 L42.42,12.87 C40.74,11.55 39.555,9.765 38.865,7.515 C38.955,6.645 39.015,5.7 39.015,4.65 L37.65,4.65 Z" id="Shape"></path>
            <path d="M46.65,0.06 C45.93,2.37 44.82,4.395 43.32,6.135 L43.785,7.65 C44.25,7.155 44.7,6.645 45.12,6.105 L45.12,14.025 L46.515,14.025 L46.515,4.035 C47.115,2.985 47.61,1.86 47.985,0.675 L46.65,0.06 Z M49.17,1.14 C48.87,3.06 48.27,4.695 47.4,6.03 L48.315,7.215 C48.855,6.435 49.305,5.58 49.68,4.635 L51.945,4.635 L51.945,7.86 L47.685,7.86 L47.685,9.24 L51.945,9.24 L51.945,13.965 L53.37,13.965 L53.37,9.24 L57.24,9.24 L57.24,7.86 L53.37,7.86 L53.37,4.635 L56.685,4.635 L56.685,3.24 L53.37,3.24 L53.37,0.24 L51.945,0.24 L51.945,3.24 L50.145,3.24 C50.31,2.64 50.445,1.995 50.565,1.32 L49.17,1.14 Z" id="Shape"></path>
        </g>
        <g id="Group" transform="translate(6, 0)">
            <polygon id="Path" points="0 0 48 0 48 48 0 48"></polygon>
            <polyline id="Path" stroke="#222222" stroke-width="3" stroke-linecap="round" stroke-linejoin="round" points="28 12 42 26 34 34"></polyline>
            <path d="M11.656,36.344 C12.7167548,37.4050753 14.1556395,38.0012082 15.656,38.0012082 C17.1563605,38.0012082 18.5952452,37.4050753 19.656,36.344 L40.828,15.172 C41.578496,14.421808 42.0001459,13.4041467 42.0001459,12.343 C42.0001459,11.2818533 41.578496,10.264192 40.828,9.514 L38.486,7.172 C37.735808,6.42150397 36.7181467,5.99985413 35.657,5.99985413 C34.5958533,5.99985413 33.578192,6.42150397 32.828,7.172 L11.656,28.344 C10.5949247,29.4047548 9.99879182,30.8436395 9.99879182,32.344 C9.99879182,33.8443605 10.5949247,35.2832452 11.656,36.344 L11.656,36.344 Z" id="Path" stroke="#222222" stroke-width="3" stroke-linecap="round" stroke-linejoin="round"></path>
            <line x1="8" y1="40" x2="11.536" y2="36.464" id="Path" stroke="#222222" stroke-width="3" stroke-linecap="round" stroke-linejoin="round"></line>
        </g>
    </g>
</svg>