<?xml version="1.0" encoding="UTF-8"?>
<svg width="60px" height="72px" viewBox="0 0 60 72" version="1.1" xmlns="http://www.w3.org/2000/svg" xmlns:xlink="http://www.w3.org/1999/xlink">
    <title>课表看板-黑</title>
    <g id="课表看板-黑" stroke="none" stroke-width="1" fill="none" fill-rule="evenodd">
        <g id="课表看板" transform="translate(0.57, 54.685)" fill="#222222" fill-rule="nonzero">
            <path d="M5.265,0.54 L5.265,6.525 L8.415,6.525 L8.415,7.665 L4.635,7.665 L4.635,8.985 L7.275,8.985 C6.585,10.245 5.55,11.28 4.17,12.12 L4.905,13.335 C6.495,12.195 7.65,10.74 8.37,8.985 L8.415,8.985 L8.415,13.83 L9.75,13.83 L9.75,8.985 L9.81,8.985 C10.455,10.575 11.55,12.015 13.08,13.32 L13.995,12.18 C12.57,11.235 11.535,10.17 10.905,8.985 L13.59,8.985 L13.59,7.665 L9.75,7.665 L9.75,6.525 L12.93,6.525 L12.93,0.54 L5.265,0.54 Z M11.625,5.325 L9.75,5.325 L9.75,4.14 L11.625,4.14 L11.625,5.325 Z M8.415,5.325 L6.57,5.325 L6.57,4.14 L8.415,4.14 L8.415,5.325 Z M6.57,2.985 L6.57,1.77 L8.415,1.77 L8.415,2.985 L6.57,2.985 Z M9.75,1.77 L11.625,1.77 L11.625,2.985 L9.75,2.985 L9.75,1.77 Z M2.04,0.135 L1.035,1.11 C2.085,1.89 2.91,2.64 3.495,3.33 L4.47,2.34 C3.81,1.605 3,0.87 2.04,0.135 Z M0,4.485 L0,5.85 L1.98,5.85 L1.98,11.235 C1.98,11.535 1.845,11.775 1.605,11.985 L2.145,13.245 C3.09,12.585 3.99,11.85 4.83,11.01 L4.455,9.555 C4.08,9.945 3.72,10.29 3.36,10.62 L3.36,4.485 L0,4.485 Z" id="Shape"></path>
            <path d="M15.93,1.2 L15.93,2.52 L21.21,2.52 L21.21,3.615 L16.8,3.615 L16.8,4.935 L21.21,4.935 L21.21,6.03 L15.405,6.03 L15.405,7.335 L19.95,7.335 C18.87,8.49 17.22,9.45 14.985,10.215 L15.735,11.46 C16.635,11.085 17.445,10.68 18.195,10.245 L18.195,11.94 C18.195,12.255 17.985,12.495 17.595,12.66 L18.075,13.875 C19.725,13.47 21.36,12.96 22.965,12.33 L22.695,11.025 C21.66,11.43 20.625,11.79 19.59,12.12 L19.59,9.3 C20.34,8.7 20.97,8.04 21.48,7.335 L21.855,7.335 C23.13,10.515 25.14,12.675 27.87,13.8 L28.65,12.54 C27.36,12.06 26.235,11.37 25.305,10.455 C26.175,10.035 26.985,9.48 27.705,8.76 L26.715,7.8 C25.995,8.58 25.26,9.15 24.48,9.54 C23.97,8.895 23.52,8.16 23.16,7.335 L28.455,7.335 L28.455,6.03 L22.65,6.03 L22.65,4.935 L27.06,4.935 L27.06,3.615 L22.65,3.615 L22.65,2.52 L27.93,2.52 L27.93,1.2 L22.65,1.2 L22.65,0.045 L21.21,0.045 L21.21,1.2 L15.93,1.2 Z" id="Path"></path>
            <path d="M31.2,2.655 L31.2,3.87 L35.265,3.87 C35.115,4.11 34.935,4.365 34.755,4.62 L30.39,4.62 L30.39,5.88 L33.735,5.88 C32.715,6.99 31.47,8.055 30,9.045 L30.765,10.26 C31.545,9.72 32.28,9.165 32.97,8.565 L32.97,13.875 L34.32,13.875 L34.32,13.305 L40.815,13.305 L40.815,13.875 L42.165,13.875 L42.165,6.63 L34.89,6.63 C35.085,6.39 35.28,6.135 35.49,5.88 L43.59,5.88 L43.59,4.62 L36.33,4.62 C36.48,4.38 36.615,4.125 36.765,3.87 L42.72,3.87 L42.72,2.655 L37.335,2.655 C37.44,2.385 37.545,2.1 37.65,1.8 C39.54,1.65 41.205,1.425 42.63,1.125 L41.97,0 C39.09,0.555 35.52,0.84 31.29,0.84 L31.695,2.01 C33.315,2.01 34.845,1.965 36.255,1.89 C36.15,2.145 36.045,2.4 35.925,2.655 L31.2,2.655 Z M34.32,9.6 L40.815,9.6 L40.815,10.305 L34.32,10.305 L34.32,9.6 Z M40.815,8.52 L34.32,8.52 L34.32,7.785 L40.815,7.785 L40.815,8.52 Z M34.32,11.385 L40.815,11.385 L40.815,12.15 L34.32,12.15 L34.32,11.385 Z" id="Shape"></path>
            <path d="M45.195,2.82 L45.195,4.2 L47.16,4.2 C46.695,5.94 45.96,7.5 44.94,8.88 L45.555,10.44 C46.215,9.375 46.755,8.205 47.205,6.945 L47.205,13.785 L48.63,13.785 L48.63,6.285 C48.96,6.81 49.335,7.47 49.755,8.25 L50.565,7.035 C49.92,6.24 49.275,5.505 48.63,4.845 L48.63,4.2 L50.295,4.2 L50.295,2.82 L48.63,2.82 L48.63,0.03 L47.205,0.03 L47.205,2.82 L45.195,2.82 Z M57.735,0.06 C55.71,0.705 53.415,1.05 50.835,1.095 L50.835,6.825 C50.76,9.375 50.25,11.355 49.32,12.795 L50.34,13.875 C51.51,12.12 52.14,9.765 52.215,6.825 L52.215,5.625 L52.74,5.625 C53.04,7.455 53.64,9.045 54.54,10.41 C53.745,11.31 52.755,12.105 51.555,12.81 L52.485,13.905 C53.625,13.215 54.615,12.42 55.425,11.55 C56.205,12.42 57.135,13.185 58.245,13.815 L58.98,12.54 C57.945,11.94 57.06,11.235 56.325,10.425 C57.33,8.955 57.9,7.245 58.05,5.31 L58.05,4.245 L52.215,4.245 L52.215,2.295 C54.495,2.205 56.58,1.89 58.455,1.38 L57.735,0.06 Z M55.41,9.255 C54.72,8.19 54.24,6.975 54,5.625 L56.745,5.625 C56.55,6.945 56.1,8.16 55.41,9.255 Z" id="Shape"></path>
        </g>
        <g id="Group" transform="translate(6, 0)">
            <polygon id="Path" points="0 0 48 0 48 48 0 48"></polygon>
            <line x1="8" y1="8" x2="20" y2="8" id="Path" stroke="#222222" stroke-width="3" stroke-linecap="round" stroke-linejoin="round"></line>
            <line x1="28" y1="8" x2="40" y2="8" id="Path" stroke="#222222" stroke-width="3" stroke-linecap="round" stroke-linejoin="round"></line>
            <path d="M8,20 C8,17.790861 9.790861,16 12,16 L16,16 C18.209139,16 20,17.790861 20,20 L20,36 C20,38.209139 18.209139,40 16,40 L12,40 C9.790861,40 8,38.209139 8,36 L8,20 Z" id="Path" stroke="#222222" stroke-width="3" stroke-linecap="round" stroke-linejoin="round"></path>
            <path d="M28,20 C28,17.790861 29.790861,16 32,16 L36,16 C38.209139,16 40,17.790861 40,20 L40,24 C40,26.209139 38.209139,28 36,28 L32,28 C29.790861,28 28,26.209139 28,24 L28,20 Z" id="Path" stroke="#222222" stroke-width="3" stroke-linecap="round" stroke-linejoin="round"></path>
        </g>
    </g>
</svg>