
<svg width="645px" height="265px" viewBox="0 0 645 265" version="1.1" xmlns="http://www.w3.org/2000/svg" xmlns:xlink="http://www.w3.org/1999/xlink">
    <g id="Page-1" stroke="none" stroke-width="1" fill="none" fill-rule="evenodd">
        <g id="Artboard" transform="translate(-2273.5, -55)" fill-rule="nonzero">
            <g id="Group-2" transform="translate(2273.5, 55)">
                <rect id="Rectangle" fill="#26A5E4" x="0" y="0" width="645" height="265" rx="40"></rect>
                <g id="Group-7" transform="translate(48.904, 57)" fill="#FFFFFF">
                    <g id="Download-on-the" transform="translate(190.3063, 10.3288)">
                        <path d="M0,36.3182158 L8.57766906,36.3182158 C18.6609928,36.3182158 24.1817266,30.0674676 24.1817266,19.482259 C24.1817266,8.85142446 18.6609928,2.82880576 8.39516547,2.82880576 L0,2.82880576 L0,36.3182158 Z M4.24320863,32.8506475 L4.24320863,6.2963741 L8.03015827,6.2963741 C15.9234388,6.2963741 19.8016403,10.9958417 19.8016403,19.482259 C19.8016403,27.9230504 15.9234388,32.8506475 8.03015827,32.8506475 L4.24320863,32.8506475 Z" id="Shape"></path>
                        <path d="M40.6070504,36.9113525 C46.675295,36.9113525 52.104777,32.166259 52.104777,23.9535971 C52.104777,15.6953094 46.675295,10.9045899 40.6070504,10.9045899 C34.5388058,10.9045899 29.1093237,15.6953094 29.1093237,23.9535971 C29.1093237,32.166259 34.5388058,36.9113525 40.6070504,36.9113525 Z M40.6070504,33.4437842 C36.3182158,33.4437842 33.4437842,29.6568345 33.4437842,23.9535971 C33.4437842,18.2503597 36.3182158,14.3721583 40.6070504,14.3721583 C44.8958849,14.3721583 47.8159424,18.2503597 47.8159424,23.9535971 C47.8159424,29.6568345 44.8958849,33.4437842 40.6070504,33.4437842 Z" id="Shape"></path>
                        <path d="M62.3706043,36.3182158 L67.2525755,36.3182158 L70.7201439,23.0410791 C71.3589065,20.6685324 71.8607914,18.3416115 72.4083022,15.8321871 L72.6364317,15.8321871 C73.2295683,18.3416115 73.6858273,20.6229065 74.3245899,22.9498273 L77.929036,36.3182158 L82.9478849,36.3182158 L89.6092662,11.5433525 L85.6854388,11.5433525 L82.0353669,25.8698849 C81.4878561,28.2424317 81.0315971,30.4781007 80.4840863,32.8050216 L80.3015827,32.8050216 C79.708446,30.4781007 79.1609353,28.2424317 78.5677986,25.8698849 L74.6895971,11.5433525 L70.6288921,11.5433525 L66.7963165,25.8698849 C66.157554,28.1968058 65.6556691,30.4781007 65.1081583,32.8050216 L64.8800288,32.8050216 C64.4237698,30.4781007 63.9218849,28.2424317 63.42,25.8698849 L59.7243022,11.5433525 L55.4810935,11.5433525 L62.3706043,36.3182158 Z" id="Path"></path>
                        <path d="M95.0387482,36.3182158 L99.190705,36.3182158 L99.190705,18.3416115 C101.700129,15.8321871 103.433914,14.5546619 105.988964,14.5546619 C109.274029,14.5546619 110.688432,16.5165755 110.688432,21.1704173 L110.688432,36.3182158 L114.840388,36.3182158 L114.840388,20.6229065 C114.840388,14.2809065 112.467842,10.9045899 107.266489,10.9045899 C103.890173,10.9045899 101.335122,12.7752518 98.9625755,15.1021727 L98.8256978,15.1021727 L98.4606906,11.5433525 L95.0387482,11.5433525 L95.0387482,36.3182158 Z" id="Path"></path>
                        <path d="M127.296259,36.9113525 C128.436906,36.9113525 129.121295,36.7744748 129.714432,36.5463453 L129.121295,33.3525324 C128.665036,33.4437842 128.482532,33.4437842 128.254403,33.4437842 C127.61564,33.4437842 127.068129,32.9418993 127.068129,31.6643741 L127.068129,0 L122.916173,0 L122.916173,31.3906187 C122.916173,34.9038129 124.193698,36.9113525 127.296259,36.9113525 Z" id="Path"></path>
                        <path d="M145.546619,36.9113525 C151.614863,36.9113525 157.044345,32.166259 157.044345,23.9535971 C157.044345,15.6953094 151.614863,10.9045899 145.546619,10.9045899 C139.478374,10.9045899 134.048892,15.6953094 134.048892,23.9535971 C134.048892,32.166259 139.478374,36.9113525 145.546619,36.9113525 Z M145.546619,33.4437842 C141.257784,33.4437842 138.383353,29.6568345 138.383353,23.9535971 C138.383353,18.2503597 141.257784,14.3721583 145.546619,14.3721583 C149.835453,14.3721583 152.755511,18.2503597 152.755511,23.9535971 C152.755511,29.6568345 149.835453,33.4437842 145.546619,33.4437842 Z" id="Shape"></path>
                        <path d="M168.542072,36.9113525 C171.599007,36.9113525 174.382187,35.314446 176.754734,33.3525324 L176.891612,33.3525324 L177.256619,36.3182158 L180.678561,36.3182158 L180.678561,21.0791655 C180.678561,14.965295 178.123511,10.9045899 172.100892,10.9045899 C168.131439,10.9045899 164.618245,12.684 162.33695,14.1440288 L163.979482,17.0184604 C165.941396,15.6953094 168.542072,14.3721583 171.416504,14.3721583 C175.477209,14.3721583 176.526604,17.4290935 176.526604,20.6229065 C165.987022,21.8091799 161.287554,24.5011079 161.287554,29.884964 C161.287554,34.3563022 164.390115,36.9113525 168.542072,36.9113525 Z M169.728345,33.5806619 C167.264547,33.5806619 165.348259,32.4400144 165.348259,29.6112086 C165.348259,26.4173957 168.177065,24.3642302 176.526604,23.3604604 L176.526604,30.2955971 C174.108432,32.4400144 172.146518,33.5806619 169.728345,33.5806619 Z" id="Shape"></path>
                        <path d="M197.012633,36.9113525 C199.978317,36.9113525 202.578993,35.314446 204.540906,33.3981583 L204.677784,33.3981583 L205.042791,36.3182158 L208.419108,36.3182158 L208.419108,0 L204.312777,0 L204.312777,9.53581295 L204.495281,13.8246475 C202.305237,11.9996115 200.434576,10.9045899 197.514518,10.9045899 C191.856906,10.9045899 186.792432,15.9234388 186.792432,23.9535971 C186.792432,32.2118849 190.807511,36.9113525 197.012633,36.9113525 Z M197.925151,33.4437842 C193.545065,33.4437842 191.081266,29.884964 191.081266,23.9079712 C191.081266,18.2503597 194.229453,14.4177842 198.244532,14.4177842 C200.297698,14.4177842 202.16836,15.1477986 204.312777,17.0184604 L204.312777,30.0218417 C202.213986,32.3031367 200.206446,33.4437842 197.925151,33.4437842 Z" id="Shape"></path>
                        <path d="M236.707165,36.9113525 C242.77541,36.9113525 248.204892,32.166259 248.204892,23.9535971 C248.204892,15.6953094 242.77541,10.9045899 236.707165,10.9045899 C230.638921,10.9045899 225.209439,15.6953094 225.209439,23.9535971 C225.209439,32.166259 230.638921,36.9113525 236.707165,36.9113525 Z M236.707165,33.4437842 C232.418331,33.4437842 229.543899,29.6568345 229.543899,23.9535971 C229.543899,18.2503597 232.418331,14.3721583 236.707165,14.3721583 C240.996,14.3721583 243.916058,18.2503597 243.916058,23.9535971 C243.916058,29.6568345 240.996,33.4437842 236.707165,33.4437842 Z" id="Shape"></path>
                        <path d="M254.729396,36.3182158 L258.881353,36.3182158 L258.881353,18.3416115 C261.390777,15.8321871 263.124561,14.5546619 265.679612,14.5546619 C268.964676,14.5546619 270.379079,16.5165755 270.379079,21.1704173 L270.379079,36.3182158 L274.531036,36.3182158 L274.531036,20.6229065 C274.531036,14.2809065 272.158489,10.9045899 266.957137,10.9045899 C263.58082,10.9045899 261.02577,12.7752518 258.653223,15.1021727 L258.516345,15.1021727 L258.151338,11.5433525 L254.729396,11.5433525 L254.729396,36.3182158 Z" id="Path"></path>
                        <path d="M300.62905,36.9113525 C302.134705,36.9113525 303.777237,36.4550935 305.19164,35.9988345 L304.370374,32.8962734 C303.549108,33.2156547 302.40846,33.535036 301.541568,33.535036 C298.667137,33.535036 297.708993,31.8012518 297.708993,28.7443165 L297.708993,14.9196691 L304.416,14.9196691 L304.416,11.5433525 L297.708993,11.5433525 L297.708993,4.56258993 L294.241424,4.56258993 L293.73954,11.5433525 L289.861338,11.771482 L289.861338,14.9196691 L293.557036,14.9196691 L293.557036,28.6530647 C293.557036,33.5806619 295.336446,36.9113525 300.62905,36.9113525 Z" id="Path"></path>
                        <path d="M310.027986,36.3182158 L314.179942,36.3182158 L314.179942,18.3416115 C316.689367,15.8321871 318.423151,14.5546619 320.978201,14.5546619 C324.263266,14.5546619 325.677669,16.5165755 325.677669,21.1704173 L325.677669,36.3182158 L329.829626,36.3182158 L329.829626,20.6229065 C329.829626,14.2809065 327.457079,10.9045899 322.255727,10.9045899 C318.87941,10.9045899 316.32436,12.7752518 314.043065,15.0565468 L314.179942,9.94644604 L314.179942,0 L310.027986,0 L310.027986,36.3182158 Z" id="Path"></path>
                        <path d="M347.714978,36.9113525 C351.091295,36.9113525 353.737597,35.770705 355.92764,34.3563022 L354.421986,31.6187482 C352.59695,32.8506475 350.635036,33.5806619 348.216863,33.5806619 C343.517396,33.5806619 340.277957,30.2043453 340.004201,24.911741 L356.703281,24.911741 C356.794532,24.3186043 356.885784,23.4517122 356.885784,22.5391942 C356.885784,15.4671799 353.326964,10.9045899 347.03059,10.9045899 C341.281727,10.9045899 335.852245,15.9234388 335.852245,23.9535971 C335.852245,32.1206331 341.144849,36.9113525 347.714978,36.9113525 Z M339.958576,21.9004317 C340.46046,17.0640863 343.563022,14.2352806 347.076216,14.2352806 C350.954417,14.2352806 353.235712,16.9272086 353.235712,21.9004317 L339.958576,21.9004317 Z" id="Shape"></path>
                    </g>
                    <g id="Group">
                        <path d="M75.1475644,0 C33.587783,0.194153284 0,33.9398688 0,75.5001028 C0,117.197545 33.8024554,151 75.4998972,151 C95.523715,151 114.727409,143.045569 128.886387,128.886592 C143.045364,114.727615 150.999794,95.5239205 150.999794,75.5001028 C150.999794,33.8026609 117.197339,0 75.4998972,0 C75.3824531,0 75.2650085,0 75.1475644,0 Z M106.366772,45.4511437 C106.995938,45.4385603 108.386394,45.5958518 109.292393,46.3319758 C109.894433,46.8547892 110.278366,47.5844871 110.368266,48.3767647 C110.468933,48.9618889 110.594766,50.3020121 110.4941,51.3464273 C109.361601,63.2879944 104.441525,92.2547883 101.937445,105.624562 C100.880446,111.287054 98.7979072,113.180843 96.7782849,113.363301 C92.3992909,113.772259 89.0710038,110.469139 84.8241345,107.688226 C78.1801436,103.328107 74.4240237,100.616402 67.9750741,96.363241 C60.5194593,91.4557477 65.3514527,88.7503347 69.5983219,84.3461741 C70.7119454,83.188509 90.0273358,65.6159079 90.4048353,64.0241184 C90.4488769,63.8227853 90.4929185,63.0803697 90.0525024,62.6902869 C89.6120864,62.3002041 88.9577539,62.4323289 88.4858796,62.5392871 C87.8189638,62.6902869 77.2049366,69.7117773 56.6437979,83.5848834 C53.623802,85.6611306 50.8995141,86.6677959 48.4520591,86.6048793 C45.7592294,86.5545461 40.5749031,85.0885897 36.7181167,83.8365498 C31.9867898,82.2950935 28.2306699,81.4834696 28.5578361,78.8724315 C28.7277109,77.5134334 30.602625,76.1229769 34.1762868,74.7010622 C56.1845069,65.1125752 70.8566536,58.7894588 78.2053102,55.7380047 C99.169115,47.0177665 103.529234,45.5014769 106.366772,45.4511437 Z" id="Shape"></path>
                    </g>
                    <g id="Telegram" transform="translate(192.8831, 68.2955)">
                        <polygon id="Path" points="14.4612374 55.4810935 24.750964 55.4810935 24.750964 12.5840576 39.3512518 12.5840576 39.3512518 3.96293525 0 3.96293525 0 12.5840576 14.4612374 12.5840576"></polygon>
                        <path d="M58.0535252,56.454446 C62.8507626,56.454446 67.7870504,54.7858417 71.6109353,52.1438849 L68.1346763,45.8866187 C65.3536691,47.6247482 62.5726619,48.5981007 59.3745036,48.5981007 C53.6039137,48.5981007 49.4324029,45.2608921 48.5981007,38.8645755 L72.5842878,38.8645755 C72.8623885,37.9607482 73.070964,36.0835683 73.070964,34.1368633 C73.070964,23.4299856 67.5089496,15.5736403 56.8020719,15.5736403 C47.555223,15.5736403 38.656,23.4299856 38.656,36.0140432 C38.656,48.8762014 47.1380719,56.454446 58.0535252,56.454446 Z M48.4590504,32.0511079 C49.2238273,26.4195683 52.8391367,23.4995108 56.9411223,23.4995108 C61.9469353,23.4995108 64.3107914,26.8367194 64.3107914,32.0511079 L48.4590504,32.0511079 Z" id="Shape"></path>
                        <path d="M91.0779856,56.454446 C93.5113669,56.454446 95.1799712,56.037295 96.3618993,55.5506187 L95.110446,47.9723741 C94.4151942,48.1114245 94.1370935,48.1114245 93.7199424,48.1114245 C92.7465899,48.1114245 91.7037122,47.3466475 91.7037122,44.9827914 L91.7037122,0 L81.4835108,0 L81.4835108,44.5656403 C81.4835108,51.796259 83.9864173,56.454446 91.0779856,56.454446 Z" id="Path"></path>
                        <path d="M120.348086,56.454446 C125.145324,56.454446 130.081612,54.7858417 133.905496,52.1438849 L130.429237,45.8866187 C127.64823,47.6247482 124.867223,48.5981007 121.669065,48.5981007 C115.898475,48.5981007 111.726964,45.2608921 110.892662,38.8645755 L134.878849,38.8645755 C135.15695,37.9607482 135.365525,36.0835683 135.365525,34.1368633 C135.365525,23.4299856 129.803511,15.5736403 119.096633,15.5736403 C109.849784,15.5736403 100.950561,23.4299856 100.950561,36.0140432 C100.950561,48.8762014 109.432633,56.454446 120.348086,56.454446 Z M110.753612,32.0511079 C111.518388,26.4195683 115.133698,23.4995108 119.235683,23.4995108 C124.241496,23.4995108 126.605353,26.8367194 126.605353,32.0511079 L110.753612,32.0511079 Z" id="Shape"></path>
                        <path d="M156.64023,72.3757122 C169.641439,72.3757122 177.84541,66.3965468 177.84541,58.5402014 C177.84541,51.7267338 172.700547,48.8066763 163.314647,48.8066763 L156.709755,48.8066763 C152.121094,48.8066763 150.59154,47.6942734 150.59154,45.608518 C150.59154,44.0094388 151.217266,43.1751367 152.260144,42.2713094 C153.928748,42.8275108 155.736403,43.1751367 157.265957,43.1751367 C165.608978,43.1751367 172.283396,38.7255252 172.283396,29.9653525 C172.283396,27.5319712 171.518619,25.3766906 170.545266,24.0557122 L177.150158,24.0557122 L177.150158,16.5469928 L163.106072,16.5469928 C161.506993,15.9907914 159.421237,15.5736403 157.265957,15.5736403 C148.99246,15.5736403 141.553266,20.5099281 141.553266,29.6177266 C141.553266,34.2063885 144.056173,37.891223 146.767655,39.8379281 L146.767655,40.1160288 C144.403799,41.7846331 142.387568,44.4961151 142.387568,47.4161727 C142.387568,50.6143309 143.917122,52.6305612 145.933353,53.9515396 L145.933353,54.2991655 C142.387568,56.3153957 140.371338,59.0964029 140.371338,62.3640863 C140.371338,69.2470791 147.462906,72.3757122 156.64023,72.3757122 Z M157.265957,36.8483453 C153.859223,36.8483453 151.147741,34.2759137 151.147741,29.6177266 C151.147741,25.0985899 153.789698,22.5261583 157.265957,22.5261583 C160.742216,22.5261583 163.384173,25.0985899 163.384173,29.6177266 C163.384173,34.2759137 160.672691,36.8483453 157.265957,36.8483453 Z M158.169784,65.9098705 C152.538245,65.9098705 148.922935,64.0326906 148.922935,60.7650072 C148.922935,59.1659281 149.687712,57.6363741 151.425842,56.2458705 C152.816345,56.5934964 154.48495,56.8020719 156.848806,56.8020719 L161.576518,56.8020719 C165.748029,56.8020719 168.04236,57.4973237 168.04236,60.2783309 C168.04236,63.3374388 164.009899,65.9098705 158.169784,65.9098705 Z" id="Shape"></path>
                        <path d="M184.450302,55.4810935 L194.670504,55.4810935 L194.670504,32.2596835 C196.825784,26.6281439 200.510619,24.6119137 203.569727,24.6119137 C205.168806,24.6119137 206.281209,24.8204892 207.671712,25.2376403 L209.409842,16.4079424 C208.227914,15.9212662 206.97646,15.5736403 204.82118,15.5736403 C200.788719,15.5736403 196.617209,18.3546475 193.766676,23.4299856 L193.558101,23.4299856 L192.793324,16.5469928 L184.450302,16.5469928 L184.450302,55.4810935 Z" id="Path"></path>
                        <path d="M222.202475,56.454446 C226.652086,56.454446 230.545496,54.2296403 233.95223,51.3095827 L234.230331,51.3095827 L234.925583,55.4810935 L243.268604,55.4810935 L243.268604,32.7463597 C243.268604,21.4832806 238.193266,15.5736403 228.320691,15.5736403 C222.202475,15.5736403 216.64046,17.8679712 212.051799,20.7185036 L215.736633,27.462446 C219.351942,25.3766906 222.828201,23.7776115 226.443511,23.7776115 C231.240748,23.7776115 232.909353,26.6976691 233.117928,30.521554 C217.405237,32.1901583 210.661295,36.5702446 210.661295,44.9132662 C210.661295,51.5181583 215.249957,56.454446 222.202475,56.454446 Z M225.539683,48.4590504 C222.550101,48.4590504 220.39482,47.1380719 220.39482,44.078964 C220.39482,40.602705 223.592978,37.9607482 233.117928,36.7788201 L233.117928,44.6351655 C230.615022,47.0685468 228.459741,48.4590504 225.539683,48.4590504 Z" id="Shape"></path>
                        <path d="M253.697381,55.4810935 L263.917583,55.4810935 L263.917583,28.7138993 C266.629065,25.7938417 269.131971,24.3338129 271.356777,24.3338129 C275.041612,24.3338129 276.849266,26.4195683 276.849266,32.468259 L276.849266,55.4810935 L286.999942,55.4810935 L286.999942,28.7138993 C289.78095,25.7938417 292.283856,24.3338129 294.508662,24.3338129 C298.193496,24.3338129 299.931626,26.4195683 299.931626,32.468259 L299.931626,55.4810935 L310.151827,55.4810935 L310.151827,31.2168058 C310.151827,21.4137554 306.327942,15.5736403 298.054446,15.5736403 C292.979108,15.5736403 289.224748,18.6327482 285.678964,22.3871079 C283.801784,18.0765468 280.534101,15.5736403 274.972086,15.5736403 C269.896748,15.5736403 266.281439,18.3546475 263.013755,21.7613813 L262.80518,21.7613813 L262.040403,16.5469928 L253.697381,16.5469928 L253.697381,55.4810935 Z" id="Path"></path>
                    </g>
                </g>
            </g>
        </g>
    </g>
</svg>